<svg width="20" height="19" viewBox="0 0 20 19" fill="none" xmlns="http://www.w3.org/2000/svg">
<path d="M2.91049 0.00150131C2.58852 0.0166016 2.27237 0.151998 2.04052 0.40406L0.418948 2.16689C0.421215 2.16166 0.412598 2.16242 0.366654 2.22671C0.342162 2.25987 0.32313 2.29666 0.310263 2.33571C-0.349779 4.41491 0.0926833 6.70207 1.17048 8.87741C2.24833 11.0527 3.96757 13.1345 5.94139 14.8427C7.91521 16.5509 10.1423 17.8874 12.2657 18.5503C14.3891 19.2132 16.448 19.2044 17.9738 18.1097C17.9903 18.0976 18.0059 18.0842 18.0204 18.0697C18.0604 18.0301 18.0617 18.0251 18.0553 18.0311L18.0614 18.0235L19.6753 16.2683C20.139 15.7641 20.1016 14.9716 19.5917 14.513L15.7631 11.0696C15.2533 10.611 14.452 10.6475 13.9882 11.1517L12.2559 13.0356C10.8498 12.633 9.64759 11.9504 8.49143 10.9103C7.33505 9.87012 6.53394 8.75062 5.99573 7.40394L7.72751 5.51999C8.19127 5.01582 8.15437 4.22337 7.64446 3.76476L3.81587 0.321317C3.56096 0.09201 3.23298 -0.0136603 2.91097 0.00141006L2.91049 0.00150131ZM2.94689 0.774155C3.06549 0.768923 3.18616 0.809669 3.28473 0.898372L7.11332 4.34181C7.31056 4.5192 7.32396 4.80237 7.1446 4.99737L5.23026 7.07805C5.18214 7.13063 5.14945 7.1952 5.13572 7.2648C5.12198 7.3344 5.12773 7.40641 5.15234 7.47301C5.73333 9.04097 6.67057 10.3272 7.96023 11.4874C9.24988 12.6474 10.6323 13.4489 12.2656 13.8727C12.3352 13.8908 12.4084 13.8897 12.4774 13.8695C12.5464 13.8493 12.6084 13.8108 12.6568 13.7582L14.5716 11.677C14.7509 11.482 15.0368 11.4691 15.234 11.6465L19.0631 15.09C19.2603 15.2674 19.2732 15.55 19.0938 15.745L17.4933 17.485C16.2412 18.3738 14.4773 18.4236 12.502 17.8069C10.5189 17.1878 8.36609 15.9055 6.46068 14.2564C4.55527 12.6074 2.89711 10.5935 1.87792 8.53656C0.869241 6.50072 0.503307 4.4426 1.05814 2.62856L2.62181 0.929101C2.71148 0.831615 2.82824 0.779407 2.94684 0.77395L2.94689 0.774155Z" fill="#FF6B09"/>
</svg>
